# xmcd CD database file
#
# Track frame offsets:
#	150
#	21112
#	46502
#	66442
#	88447
#	104795
#	122422
#	148237
#	176240
#	197442
#
# Disc length: 2895 seconds
#
# Revision: 0
# Processed by: cddbd v1.5PL3 Copyright (c) Steve Scherf et al.
# Submitted via: CDex 1.50beta8
#
DISCID=920b4d0a
DTITLE=大江千里 - first class
DYEAR=1900
DGENRE=不明
TTITLE0=ファーストクラス
TTITLE1=ステイションワゴン進む
TTITLE2=赤目のラビット
TTITLE3=10
TTITLE4=未来乗車券
TTITLE5=PIANO MAN
TTITLE6=奇跡 (first class mix)
TTITLE7=stereo cue box
TTITLE8=アンコールはしない
TTITLE9=眠り姫
EXTD=
EXTT0=
EXTT1=
EXTT2=
EXTT3=
EXTT4=
EXTT5=
EXTT6=
EXTT7=
EXTT8=
EXTT9=
PLAYORDER=
